<?xml version="1.0" encoding="UTF-8"?>
<svg width="702px" height="280px" viewBox="0 0 702 280" version="1.1" xmlns="http://www.w3.org/2000/svg" xmlns:xlink="http://www.w3.org/1999/xlink">
    <title>logo-tmp</title>
    <g id="Page-1" stroke="none" stroke-width="1" fill="none" fill-rule="evenodd">
        <g id="logo-tmp" fill-rule="nonzero">
            <path d="M701.718,236.693 C701.718,260.13 682.543,279.303 659.108,279.303 L42.893,279.303 C19.457,279.303 0.283,260.129 0.283,236.693 L0.283,43.307 C0.283,19.873 19.458,0.697 42.893,0.697 L659.108,0.697 C682.544,0.697 701.718,19.874 701.718,43.307 L701.718,236.693 Z" id="Path" fill="#056EB4"></path>
            <path d="M227.813,89.467 L197.163,89.467 L210.951,55.758 C211.633,54.087 210.826,52.163 209.158,51.482 L197.781,46.832 C196.111,46.15 194.187,46.957 193.506,48.624 L176.8,89.467 L136.798,89.467 L150.586,55.758 C151.27,54.087 150.463,52.163 148.793,51.482 L137.416,46.832 C135.748,46.15 133.824,46.957 133.141,48.624 L116.434,89.468 L65.319,89.468 C63.516,89.468 62.041,90.944 62.041,92.746 L62.041,105.037 C62.041,106.843 63.517,108.314 65.319,108.314 L108.726,108.314 L92.19,148.742 L48.63,148.742 C46.826,148.742 45.353,150.218 45.353,152.02 L45.353,164.311 C45.353,166.114 46.827,167.589 48.63,167.589 L84.483,167.589 L70.581,201.572 C69.899,203.243 70.706,205.167 72.374,205.848 L83.753,210.502 C85.421,211.184 87.345,210.377 88.028,208.71 L104.847,167.588 L144.845,167.588 L130.947,201.571 C130.263,203.242 131.07,205.166 132.74,205.847 L144.117,210.501 C145.787,211.183 147.711,210.376 148.392,208.709 L165.209,167.587 L213.882,167.587 C215.686,167.587 217.16,166.111 217.16,164.309 L217.16,152.02 C217.16,150.217 215.685,148.742 213.882,148.742 L172.919,148.742 L189.453,108.314 L227.812,108.314 C229.616,108.314 231.090001,106.842 231.090001,105.037 L231.090001,92.746 C231.090001,90.942 229.616,89.467 227.813,89.467 Z M152.555,148.741 L112.554,148.741 L129.09,108.313 L169.09,108.313 L152.555,148.741 Z" id="Shape" fill="#6FA8DC"></path>
            <g id="Group" transform="translate(219.000000, 60.000000)" fill="#FFFFFF">
                <path d="M81.742,29.467 L59.457,29.467 L59.457,0.896 L37.341,0.896 L37.341,29.467 L3.351,29.467 C1.547,29.467 0.073,30.943 0.073,32.745 L0.073,45.036 C0.073,46.842 1.548,48.313 3.351,48.313 L37.341,48.313 L37.341,101.922 C37.341,120.67 45.834,130.042 62.825,130.042 C67.496,130.042 72.35,129.344 77.386,127.948 L77.386,110.84 C74.778,111.448 72.198,111.752 69.65,111.752 C65.828,111.752 63.174,110.916 61.687,109.249 C60.201,107.578 59.458,104.863 59.458,101.103 L59.458,48.313 L81.743,48.313 C83.547,48.313 85.02,46.841 85.02,45.036 L85.02,32.745 C85.02,30.942 83.546,29.467 81.742,29.467 Z" id="Path"></path>
                <path d="M132.174,130.043 C118.159,130.043 106.798,125.632 98.089,116.801 C89.383,107.976 85.029,96.219 85.029,81.533 L85.029,78.803 C85.029,68.976 86.925,60.193 90.717,52.456 C94.51,44.72 99.833,38.695 106.69,34.39 C113.546,30.081 121.193,27.928 129.628,27.928 C143.036,27.928 153.397,32.204 160.709,40.76 C168.02,49.316 171.675,61.419 171.675,77.074 L171.675,85.995 L107.327,85.995 C107.994,94.125 110.712,100.556 115.473,105.29 C120.236,110.021 126.228,112.387 133.448,112.387 C143.582,112.387 151.833,108.293 158.206,100.102 L170.129,111.478 C166.184,117.365 160.92,121.929 154.337,125.174 C147.753,128.423 140.367,130.043 132.174,130.043 Z M129.535,45.673 C123.47,45.673 118.567,47.799 114.837,52.046 C111.105,56.294 108.723,62.209 107.693,69.792 L149.83,69.792 L149.83,68.156 C149.347,60.753 147.374,55.154 143.915,51.361 C140.457,47.571 135.663,45.673 129.535,45.673 Z" id="Shape"></path>
                <path d="M242.755,128.225 C241.783,126.343 240.935,123.28 240.208,119.033 C233.168,126.376 224.553,130.044 214.359,130.044 C204.466,130.044 196.399,127.224 190.147,121.581 C183.899,115.94 180.775,108.963 180.775,100.649 C180.775,90.151 184.672,82.097 192.469,76.483 C200.265,70.872 211.413,68.064 225.917,68.064 L239.478,68.064 L239.478,61.601 C239.478,56.505 238.05,52.427 235.2,49.361 C232.348,46.298 228.012,44.764 222.187,44.764 C217.15,44.764 213.024,46.023 209.807,48.541 C206.592,51.061 204.985,54.262 204.985,58.144 L182.867,58.144 C182.867,52.745 184.658,47.694 188.238,42.988 C191.816,38.286 196.687,34.602 202.845,31.932 C209.002,29.262 215.876,27.928 223.459,27.928 C234.988,27.928 244.18,30.824 251.036,36.618 C257.892,42.411 261.412,50.557 261.593,61.056 L261.593,105.472 C261.593,114.329 262.836,121.397 265.326,126.675 L265.326,128.224 L242.755,128.224 L242.755,128.225 Z M218.453,112.297 C222.821,112.297 226.934,111.234 230.786,109.109 C234.64,106.986 237.539,104.134 239.478,100.555 L239.478,81.987 L227.554,81.987 C219.364,81.987 213.204,83.415 209.078,86.267 C204.952,89.119 202.89,93.152 202.89,98.372 C202.89,102.62 204.3,106 207.12,108.518 C209.945,111.039 213.721,112.297 218.453,112.297 Z" id="Shape"></path>
                <path d="M302.277,29.749 L302.913,40.03 C309.831,31.961 319.297,27.927 331.311,27.927 C344.476,27.927 353.485,32.961 358.34,43.034 C365.499,32.961 375.572,27.927 388.557,27.927 C399.418,27.927 407.505,30.929 412.812,36.937 C418.123,42.946 420.837,51.802 420.958,63.511 L420.958,128.224 L398.842,128.224 L398.842,64.148 C398.842,57.9 397.477,53.32 394.746,50.407 C392.015,47.494 387.496,46.038 381.185,46.038 C376.148,46.038 372.039,47.389 368.852,50.087 C365.666,52.789 363.437,56.322 362.164,60.691 L362.255,128.224 L340.135,128.224 L340.135,63.421 C339.834,51.831 333.919,46.037 322.391,46.037 C313.531,46.037 307.251,49.647 303.55,56.869 L303.55,128.224 L281.434,128.224 L281.434,29.747 L302.277,29.747 L302.277,29.749 Z" id="Path"></path>
            </g>
        </g>
    </g>
</svg>